%TF.GenerationSoftware,KiCad,Pcbnew,10.0.3*%
%TF.CreationDate,2026-06-26T14:54:03+05:30*%
%TF.ProjectId,bridge_rectifier_kicad,62726964-6765-45f7-9265-637469666965,rev?*%
%TF.SameCoordinates,Original*%
%TF.FileFunction,Copper,L1,Top*%
%TF.FilePolarity,Positive*%
%FSLAX46Y46*%
G04 Gerber Fmt 4.6, Leading zero omitted, Abs format (unit mm)*
G04 Created by KiCad (PCBNEW 10.0.3) date 2026-06-26 14:54:03*
%MOMM*%
%LPD*%
G01*
G04 APERTURE LIST*
G04 Aperture macros list*
%AMRoundRect*
0 Rectangle with rounded corners*
0 $1 Rounding radius*
0 $2 $3 $4 $5 $6 $7 $8 $9 X,Y pos of 4 corners*
0 Add a 4 corners polygon primitive as box body*
4,1,4,$2,$3,$4,$5,$6,$7,$8,$9,$2,$3,0*
0 Add four circle primitives for the rounded corners*
1,1,$1+$1,$2,$3*
1,1,$1+$1,$4,$5*
1,1,$1+$1,$6,$7*
1,1,$1+$1,$8,$9*
0 Add four rect primitives between the rounded corners*
20,1,$1+$1,$2,$3,$4,$5,0*
20,1,$1+$1,$4,$5,$6,$7,0*
20,1,$1+$1,$6,$7,$8,$9,0*
20,1,$1+$1,$8,$9,$2,$3,0*%
G04 Aperture macros list end*
%TA.AperFunction,ComponentPad*%
%ADD10C,2.200000*%
%TD*%
%TA.AperFunction,ComponentPad*%
%ADD11RoundRect,0.249999X-0.850001X0.850001X-0.850001X-0.850001X0.850001X-0.850001X0.850001X0.850001X0*%
%TD*%
%TA.AperFunction,ComponentPad*%
%ADD12RoundRect,0.250001X-1.149999X1.149999X-1.149999X-1.149999X1.149999X-1.149999X1.149999X1.149999X0*%
%TD*%
%TA.AperFunction,ComponentPad*%
%ADD13C,2.800000*%
%TD*%
%TA.AperFunction,ComponentPad*%
%ADD14C,2.000000*%
%TD*%
%TA.AperFunction,ComponentPad*%
%ADD15RoundRect,0.250000X-0.750000X0.750000X-0.750000X-0.750000X0.750000X-0.750000X0.750000X0.750000X0*%
%TD*%
%TA.AperFunction,ComponentPad*%
%ADD16C,2.400000*%
%TD*%
%TA.AperFunction,Conductor*%
%ADD17C,2.000000*%
%TD*%
G04 APERTURE END LIST*
D10*
%TO.P,D2,2,A_2*%
%TO.N,GND*%
X123500000Y-119080000D03*
D11*
%TO.P,D2,1,K_1*%
%TO.N,Net-(D1-A)*%
X123500000Y-108920000D03*
%TD*%
%TO.P,D4,1,K_1*%
%TO.N,Net-(D3-A)*%
X155500000Y-109840000D03*
D10*
%TO.P,D4,2,A_2*%
%TO.N,GND*%
X155500000Y-120000000D03*
%TD*%
D12*
%TO.P,J2,1,Pin_1_1*%
%TO.N,Net-(D1-K)*%
X193000000Y-99000000D03*
D13*
%TO.P,J2,2,Pin_2_2*%
%TO.N,GND*%
X193000000Y-104000000D03*
%TD*%
D12*
%TO.P,J1,1,Pin_1_1*%
%TO.N,Net-(D3-A)*%
X84467500Y-102250000D03*
D13*
%TO.P,J1,2,Pin_2_2*%
%TO.N,Net-(D1-A)*%
X84467500Y-107250000D03*
%TD*%
D14*
%TO.P,C1,2*%
%TO.N,GND*%
X166132323Y-102500000D03*
D15*
%TO.P,C1,1*%
%TO.N,Net-(D1-K)*%
X166132323Y-97500000D03*
%TD*%
D11*
%TO.P,D1,1,K_1*%
%TO.N,Net-(D1-K)*%
X122500000Y-81500000D03*
D10*
%TO.P,D1,2,A_2*%
%TO.N,Net-(D1-A)*%
X122500000Y-91660000D03*
%TD*%
D11*
%TO.P,D3,1,K_1*%
%TO.N,Net-(D1-K)*%
X154500000Y-81500000D03*
D10*
%TO.P,D3,2,A_2*%
%TO.N,Net-(D3-A)*%
X154500000Y-91660000D03*
%TD*%
D16*
%TO.P,R1,1*%
%TO.N,Net-(D1-K)*%
X182500000Y-98740000D03*
%TO.P,R1,2*%
%TO.N,GND*%
X182500000Y-103820000D03*
%TD*%
%TO.N,GND*%
D17*
X192820000Y-103820000D02*
X193000000Y-104000000D01*
X182500000Y-103820000D02*
X192820000Y-103820000D01*
%TO.N,Net-(D1-K)*%
X122500000Y-81500000D02*
X154500000Y-81500000D01*
%TO.N,GND*%
X166132323Y-102500000D02*
X166132323Y-102632323D01*
X166132323Y-102632323D02*
X167320000Y-103820000D01*
X167320000Y-103820000D02*
X182500000Y-103820000D01*
%TO.N,Net-(D3-A)*%
X84467500Y-102250000D02*
X143750000Y-102250000D01*
X154500000Y-91660000D02*
X155840000Y-91660000D01*
X155840000Y-91660000D02*
X156000000Y-91500000D01*
X143910000Y-102250000D02*
X154500000Y-91660000D01*
X149500000Y-110000000D02*
X143750000Y-104250000D01*
X155500000Y-109840000D02*
X155160000Y-109840000D01*
X143750000Y-102250000D02*
X143910000Y-102250000D01*
X143750000Y-104250000D02*
X143750000Y-102250000D01*
X155000000Y-110000000D02*
X149500000Y-110000000D01*
X155160000Y-109840000D02*
X155000000Y-110000000D01*
%TO.N,Net-(D1-K)*%
X181260000Y-97500000D02*
X182500000Y-98740000D01*
%TO.N,GND*%
X155500000Y-120000000D02*
X166132323Y-109367677D01*
X166132323Y-109367677D02*
X166132323Y-102500000D01*
%TO.N,Net-(D1-K)*%
X166132323Y-97500000D02*
X181260000Y-97500000D01*
X154500000Y-81500000D02*
X154500000Y-85867677D01*
X154500000Y-85867677D02*
X166132323Y-97500000D01*
%TO.N,GND*%
X154580000Y-119080000D02*
X155500000Y-120000000D01*
X123500000Y-119080000D02*
X154580000Y-119080000D01*
%TO.N,Net-(D1-K)*%
X182760000Y-99000000D02*
X182500000Y-98740000D01*
X193000000Y-99000000D02*
X182760000Y-99000000D01*
%TD*%
%TA.AperFunction,Conductor*%
%TO.N,GND*%
G36*
X134527918Y-63008309D02*
G01*
X176493270Y-75497997D01*
X176506449Y-75502746D01*
X198602129Y-84909817D01*
X198656099Y-84954189D01*
X198670306Y-84982133D01*
X198932926Y-85716105D01*
X198933894Y-85718915D01*
X199418887Y-87187011D01*
X199419792Y-87189868D01*
X199868595Y-88669375D01*
X199869442Y-88672298D01*
X200199420Y-89864682D01*
X200267151Y-90109432D01*
X200281776Y-90162278D01*
X200282552Y-90165220D01*
X200658214Y-91664948D01*
X200658917Y-91667909D01*
X200997656Y-93176383D01*
X200998286Y-93179361D01*
X201299898Y-94695670D01*
X201300455Y-94698662D01*
X201564763Y-96221902D01*
X201565247Y-96224906D01*
X201792104Y-97754253D01*
X201792513Y-97757269D01*
X201981758Y-99291626D01*
X201982094Y-99294651D01*
X202133634Y-100833261D01*
X202133895Y-100836293D01*
X202247626Y-102378116D01*
X202247813Y-102381154D01*
X202323674Y-103925336D01*
X202323786Y-103928377D01*
X202361728Y-105473955D01*
X202361765Y-105476998D01*
X202361765Y-107023001D01*
X202361728Y-107026044D01*
X202323786Y-108571622D01*
X202323674Y-108574663D01*
X202247813Y-110118845D01*
X202247626Y-110121883D01*
X202133895Y-111663706D01*
X202133634Y-111666738D01*
X201982094Y-113205348D01*
X201981758Y-113208373D01*
X201792513Y-114742730D01*
X201792104Y-114745746D01*
X201565247Y-116275093D01*
X201564763Y-116278097D01*
X201300455Y-117801337D01*
X201299898Y-117804329D01*
X200998286Y-119320638D01*
X200997656Y-119323616D01*
X200658917Y-120832090D01*
X200658214Y-120835051D01*
X200282552Y-122334779D01*
X200281776Y-122337721D01*
X199869442Y-123827701D01*
X199868595Y-123830624D01*
X199419792Y-125310131D01*
X199418879Y-125313011D01*
X198933902Y-126781060D01*
X198932926Y-126783894D01*
X198412094Y-128239523D01*
X198411034Y-128242376D01*
X197854620Y-129684823D01*
X197853490Y-129687649D01*
X197261847Y-131116000D01*
X197260648Y-131118797D01*
X196634139Y-132532179D01*
X196632872Y-132534946D01*
X195971851Y-133932558D01*
X195970516Y-133935293D01*
X195275395Y-135316261D01*
X195273993Y-135318962D01*
X194545217Y-136682408D01*
X194543750Y-136685074D01*
X193781705Y-138030270D01*
X193780185Y-138032878D01*
X193780173Y-138032900D01*
X193780172Y-138032901D01*
X193734434Y-138109208D01*
X193683084Y-138156589D01*
X193656187Y-138166230D01*
X160009033Y-145997897D01*
X159990755Y-146000735D01*
X116009716Y-149499227D01*
X115990281Y-149499245D01*
X91624178Y-147606731D01*
X91558864Y-147581914D01*
X91539890Y-147564100D01*
X91205487Y-147176433D01*
X90956304Y-146887560D01*
X90954345Y-146885232D01*
X89973558Y-145690140D01*
X89971656Y-145687764D01*
X89020486Y-144468954D01*
X89018643Y-144466532D01*
X88097647Y-143224712D01*
X88095865Y-143222245D01*
X87205682Y-141958283D01*
X87203960Y-141955774D01*
X86710673Y-141217518D01*
X86345004Y-140670255D01*
X86343389Y-140667774D01*
X85516221Y-139361531D01*
X85514633Y-139358953D01*
X85022610Y-138538062D01*
X84719799Y-138032852D01*
X84718322Y-138030318D01*
X83956221Y-136685024D01*
X83954810Y-136682459D01*
X83226005Y-135318961D01*
X83224604Y-135316261D01*
X82529483Y-133935293D01*
X82528148Y-133932558D01*
X81867127Y-132534946D01*
X81865860Y-132532179D01*
X81239351Y-131118797D01*
X81238152Y-131116000D01*
X80646509Y-129687649D01*
X80645379Y-129684823D01*
X80088943Y-128242318D01*
X80087927Y-128239583D01*
X79567057Y-126783849D01*
X79566121Y-126781131D01*
X79081096Y-125312938D01*
X79080207Y-125310131D01*
X78631404Y-123830624D01*
X78630557Y-123827701D01*
X78218207Y-122337660D01*
X78217457Y-122334819D01*
X77841772Y-120834996D01*
X77841095Y-120832147D01*
X77502336Y-119323583D01*
X77501713Y-119320638D01*
X77470042Y-119161416D01*
X77428798Y-118954071D01*
X121900000Y-118954071D01*
X121900000Y-119205928D01*
X121939397Y-119454669D01*
X122017219Y-119694184D01*
X122131557Y-119918583D01*
X122205748Y-120020697D01*
X122205748Y-120020698D01*
X122976212Y-119250234D01*
X122987482Y-119292292D01*
X123059890Y-119417708D01*
X123162292Y-119520110D01*
X123287708Y-119592518D01*
X123329765Y-119603787D01*
X122559300Y-120374250D01*
X122661416Y-120448442D01*
X122885815Y-120562780D01*
X123125330Y-120640602D01*
X123374072Y-120680000D01*
X123625928Y-120680000D01*
X123874669Y-120640602D01*
X124114184Y-120562780D01*
X124338575Y-120448446D01*
X124338581Y-120448442D01*
X124440697Y-120374250D01*
X124440698Y-120374250D01*
X123670234Y-119603787D01*
X123712292Y-119592518D01*
X123837708Y-119520110D01*
X123940110Y-119417708D01*
X124012518Y-119292292D01*
X124023787Y-119250235D01*
X124794250Y-120020698D01*
X124794250Y-120020697D01*
X124868442Y-119918581D01*
X124868446Y-119918575D01*
X124891122Y-119874071D01*
X153900000Y-119874071D01*
X153900000Y-120125928D01*
X153939397Y-120374669D01*
X154017219Y-120614184D01*
X154131557Y-120838583D01*
X154205748Y-120940697D01*
X154205748Y-120940698D01*
X154976212Y-120170234D01*
X154987482Y-120212292D01*
X155059890Y-120337708D01*
X155162292Y-120440110D01*
X155287708Y-120512518D01*
X155329765Y-120523787D01*
X154559300Y-121294250D01*
X154661416Y-121368442D01*
X154885815Y-121482780D01*
X155125330Y-121560602D01*
X155374072Y-121600000D01*
X155625928Y-121600000D01*
X155874669Y-121560602D01*
X156114184Y-121482780D01*
X156338575Y-121368446D01*
X156338581Y-121368442D01*
X156440697Y-121294250D01*
X156440698Y-121294250D01*
X155670234Y-120523787D01*
X155712292Y-120512518D01*
X155837708Y-120440110D01*
X155940110Y-120337708D01*
X156012518Y-120212292D01*
X156023787Y-120170234D01*
X156794250Y-120940698D01*
X156794250Y-120940697D01*
X156868442Y-120838581D01*
X156868446Y-120838575D01*
X156982780Y-120614184D01*
X157060602Y-120374669D01*
X157100000Y-120125928D01*
X157100000Y-119874071D01*
X157060602Y-119625330D01*
X156982780Y-119385815D01*
X156868442Y-119161416D01*
X156794250Y-119059301D01*
X156794250Y-119059300D01*
X156023787Y-119829764D01*
X156012518Y-119787708D01*
X155940110Y-119662292D01*
X155837708Y-119559890D01*
X155712292Y-119487482D01*
X155670232Y-119476212D01*
X156440698Y-118705748D01*
X156338583Y-118631557D01*
X156114184Y-118517219D01*
X155874669Y-118439397D01*
X155625928Y-118400000D01*
X155374072Y-118400000D01*
X155125330Y-118439397D01*
X154885815Y-118517219D01*
X154661413Y-118631559D01*
X154559301Y-118705747D01*
X154559300Y-118705748D01*
X155329765Y-119476212D01*
X155287708Y-119487482D01*
X155162292Y-119559890D01*
X155059890Y-119662292D01*
X154987482Y-119787708D01*
X154976212Y-119829765D01*
X154205748Y-119059300D01*
X154205747Y-119059301D01*
X154131559Y-119161413D01*
X154017219Y-119385815D01*
X153939397Y-119625330D01*
X153900000Y-119874071D01*
X124891122Y-119874071D01*
X124922286Y-119812910D01*
X124982780Y-119694184D01*
X125060602Y-119454669D01*
X125100000Y-119205928D01*
X125100000Y-118954071D01*
X125071227Y-118772406D01*
X125060603Y-118705331D01*
X124982780Y-118465815D01*
X124868442Y-118241416D01*
X124794250Y-118139301D01*
X124794250Y-118139300D01*
X124023787Y-118909764D01*
X124012518Y-118867708D01*
X123940110Y-118742292D01*
X123837708Y-118639890D01*
X123712292Y-118567482D01*
X123670232Y-118556212D01*
X124440698Y-117785748D01*
X124338583Y-117711557D01*
X124114184Y-117597219D01*
X123874669Y-117519397D01*
X123625928Y-117480000D01*
X123374072Y-117480000D01*
X123125330Y-117519397D01*
X122885815Y-117597219D01*
X122661413Y-117711559D01*
X122559301Y-117785747D01*
X122559300Y-117785748D01*
X123329765Y-118556212D01*
X123287708Y-118567482D01*
X123162292Y-118639890D01*
X123059890Y-118742292D01*
X122987482Y-118867708D01*
X122976212Y-118909765D01*
X122205748Y-118139300D01*
X122205747Y-118139301D01*
X122131559Y-118241413D01*
X122017219Y-118465815D01*
X121939397Y-118705330D01*
X121900000Y-118954071D01*
X77428798Y-118954071D01*
X77200085Y-117804252D01*
X77199544Y-117801337D01*
X76935236Y-116278097D01*
X76934752Y-116275093D01*
X76727755Y-114879631D01*
X76707889Y-114745703D01*
X76707492Y-114742775D01*
X76518233Y-113208305D01*
X76517912Y-113205415D01*
X76366359Y-111666679D01*
X76366109Y-111663765D01*
X76252372Y-110121882D01*
X76252186Y-110118845D01*
X76242555Y-109922796D01*
X76176323Y-108574612D01*
X76176214Y-108571673D01*
X76140712Y-107125441D01*
X82567000Y-107125441D01*
X82567000Y-107374558D01*
X82567001Y-107374575D01*
X82599517Y-107621561D01*
X82663998Y-107862207D01*
X82759330Y-108092361D01*
X82759337Y-108092376D01*
X82883900Y-108308126D01*
X83035560Y-108505774D01*
X83035566Y-108505781D01*
X83211718Y-108681933D01*
X83211725Y-108681939D01*
X83409373Y-108833599D01*
X83625123Y-108958162D01*
X83625138Y-108958169D01*
X83724325Y-108999253D01*
X83855293Y-109053502D01*
X84095935Y-109117982D01*
X84342935Y-109150500D01*
X84342942Y-109150500D01*
X84592058Y-109150500D01*
X84592065Y-109150500D01*
X84839065Y-109117982D01*
X85079707Y-109053502D01*
X85309873Y-108958164D01*
X85525627Y-108833599D01*
X85723276Y-108681938D01*
X85899438Y-108505776D01*
X86051099Y-108308127D01*
X86175664Y-108092373D01*
X86205649Y-108019982D01*
X121899500Y-108019982D01*
X121899500Y-109820017D01*
X121910000Y-109922796D01*
X121910001Y-109922798D01*
X121965186Y-110089335D01*
X122057288Y-110238656D01*
X122181344Y-110362712D01*
X122330665Y-110454814D01*
X122497202Y-110509999D01*
X122599990Y-110520500D01*
X122599995Y-110520500D01*
X124400005Y-110520500D01*
X124400010Y-110520500D01*
X124502798Y-110509999D01*
X124669335Y-110454814D01*
X124818656Y-110362712D01*
X124942712Y-110238656D01*
X125034814Y-110089335D01*
X125089999Y-109922798D01*
X125100500Y-109820010D01*
X125100500Y-108019990D01*
X125089999Y-107917202D01*
X125034814Y-107750665D01*
X124942712Y-107601344D01*
X124818656Y-107477288D01*
X124669335Y-107385186D01*
X124502798Y-107330001D01*
X124502796Y-107330000D01*
X124400017Y-107319500D01*
X124400010Y-107319500D01*
X122599990Y-107319500D01*
X122599982Y-107319500D01*
X122497203Y-107330000D01*
X122497202Y-107330001D01*
X122414669Y-107357349D01*
X122330667Y-107385185D01*
X122330662Y-107385187D01*
X122181342Y-107477289D01*
X122057289Y-107601342D01*
X121965187Y-107750662D01*
X121965186Y-107750665D01*
X121910001Y-107917202D01*
X121910001Y-107917203D01*
X121910000Y-107917203D01*
X121899500Y-108019982D01*
X86205649Y-108019982D01*
X86271002Y-107862207D01*
X86335482Y-107621565D01*
X86368000Y-107374565D01*
X86368000Y-107125435D01*
X86335482Y-106878435D01*
X86271002Y-106637793D01*
X86175664Y-106407627D01*
X86051099Y-106191873D01*
X85899438Y-105994224D01*
X85899433Y-105994218D01*
X85723281Y-105818066D01*
X85723274Y-105818060D01*
X85525626Y-105666400D01*
X85309876Y-105541837D01*
X85309861Y-105541830D01*
X85079707Y-105446498D01*
X84839061Y-105382017D01*
X84592075Y-105349501D01*
X84592070Y-105349500D01*
X84592065Y-105349500D01*
X84342935Y-105349500D01*
X84342929Y-105349500D01*
X84342924Y-105349501D01*
X84095938Y-105382017D01*
X83855292Y-105446498D01*
X83625138Y-105541830D01*
X83625123Y-105541837D01*
X83409373Y-105666400D01*
X83211725Y-105818060D01*
X83211718Y-105818066D01*
X83035566Y-105994218D01*
X83035560Y-105994225D01*
X82883900Y-106191873D01*
X82759337Y-106407623D01*
X82759330Y-106407638D01*
X82663998Y-106637792D01*
X82599517Y-106878438D01*
X82567001Y-107125424D01*
X82567000Y-107125441D01*
X76140712Y-107125441D01*
X76138272Y-107026044D01*
X76138235Y-107023001D01*
X76138235Y-105476998D01*
X76138272Y-105473955D01*
X76146101Y-105155045D01*
X76176214Y-103928323D01*
X76176322Y-103925390D01*
X76252186Y-102381148D01*
X76252373Y-102378116D01*
X76258704Y-102292285D01*
X76350341Y-101049984D01*
X82567000Y-101049984D01*
X82567000Y-103450015D01*
X82577500Y-103552795D01*
X82577501Y-103552796D01*
X82632686Y-103719335D01*
X82632687Y-103719337D01*
X82724786Y-103868651D01*
X82724789Y-103868655D01*
X82848844Y-103992710D01*
X82848848Y-103992713D01*
X82998162Y-104084812D01*
X82998164Y-104084813D01*
X82998166Y-104084814D01*
X83164703Y-104139999D01*
X83267492Y-104150500D01*
X83267497Y-104150500D01*
X85667503Y-104150500D01*
X85667508Y-104150500D01*
X85770297Y-104139999D01*
X85936834Y-104084814D01*
X86086155Y-103992711D01*
X86210211Y-103868655D01*
X86223011Y-103847901D01*
X86246759Y-103809403D01*
X86298707Y-103762678D01*
X86352297Y-103750500D01*
X142125500Y-103750500D01*
X142192539Y-103770185D01*
X142238294Y-103822989D01*
X142249500Y-103874500D01*
X142249500Y-104368097D01*
X142286446Y-104601368D01*
X142359433Y-104825996D01*
X142466657Y-105036434D01*
X142605483Y-105227510D01*
X148522490Y-111144517D01*
X148713566Y-111283343D01*
X148713569Y-111283344D01*
X148713573Y-111283347D01*
X148753229Y-111303552D01*
X148753230Y-111303553D01*
X148753231Y-111303553D01*
X148924003Y-111390566D01*
X148924005Y-111390566D01*
X148924008Y-111390568D01*
X149044412Y-111429689D01*
X149148631Y-111463553D01*
X149381903Y-111500500D01*
X149381908Y-111500500D01*
X155118097Y-111500500D01*
X155351368Y-111463553D01*
X155403640Y-111446569D01*
X155441958Y-111440500D01*
X156400005Y-111440500D01*
X156400010Y-111440500D01*
X156502798Y-111429999D01*
X156669335Y-111374814D01*
X156818656Y-111282712D01*
X156942712Y-111158656D01*
X157034814Y-111009335D01*
X157089999Y-110842798D01*
X157100500Y-110740010D01*
X157100500Y-108939990D01*
X157089999Y-108837202D01*
X157034814Y-108670665D01*
X156942712Y-108521344D01*
X156818656Y-108397288D01*
X156674103Y-108308127D01*
X156669337Y-108305187D01*
X156669332Y-108305185D01*
X156667863Y-108304698D01*
X156502798Y-108250001D01*
X156502796Y-108250000D01*
X156400017Y-108239500D01*
X156400010Y-108239500D01*
X154599990Y-108239500D01*
X154599982Y-108239500D01*
X154497203Y-108250000D01*
X154497202Y-108250001D01*
X154414669Y-108277349D01*
X154330667Y-108305185D01*
X154330662Y-108305187D01*
X154181342Y-108397289D01*
X154115451Y-108463181D01*
X154054128Y-108496666D01*
X154027770Y-108499500D01*
X150172889Y-108499500D01*
X150105850Y-108479815D01*
X150085208Y-108463181D01*
X145286819Y-103664792D01*
X145253334Y-103603469D01*
X145250500Y-103577111D01*
X145250500Y-103082889D01*
X145270185Y-103015850D01*
X145286819Y-102995208D01*
X145900080Y-102381947D01*
X164632323Y-102381947D01*
X164632323Y-102618052D01*
X164669257Y-102851247D01*
X164742220Y-103075802D01*
X164849410Y-103286174D01*
X164909661Y-103369104D01*
X164909663Y-103369105D01*
X165649360Y-102629408D01*
X165666398Y-102692993D01*
X165732224Y-102807007D01*
X165825316Y-102900099D01*
X165939330Y-102965925D01*
X166002913Y-102982962D01*
X165263216Y-103722658D01*
X165346151Y-103782914D01*
X165556520Y-103890102D01*
X165781075Y-103963065D01*
X165781074Y-103963065D01*
X166014271Y-104000000D01*
X166250375Y-104000000D01*
X166483570Y-103963065D01*
X166708125Y-103890102D01*
X166918486Y-103782918D01*
X166918492Y-103782914D01*
X167001427Y-103722658D01*
X167001427Y-103722657D01*
X166987345Y-103708575D01*
X180800000Y-103708575D01*
X180800000Y-103931424D01*
X180829085Y-104152354D01*
X180829088Y-104152367D01*
X180886763Y-104367618D01*
X180972045Y-104573502D01*
X180972054Y-104573520D01*
X181083464Y-104766491D01*
X181083473Y-104766504D01*
X181134040Y-104832403D01*
X181134043Y-104832403D01*
X181935387Y-104031059D01*
X181940889Y-104051591D01*
X182019881Y-104188408D01*
X182131592Y-104300119D01*
X182268409Y-104379111D01*
X182288940Y-104384612D01*
X181487595Y-105185955D01*
X181487595Y-105185956D01*
X181553507Y-105236533D01*
X181746485Y-105347949D01*
X181746497Y-105347954D01*
X181952381Y-105433236D01*
X182167632Y-105490911D01*
X182167645Y-105490914D01*
X182388575Y-105520000D01*
X182611425Y-105520000D01*
X182832354Y-105490914D01*
X182832367Y-105490911D01*
X183047618Y-105433236D01*
X183253508Y-105347952D01*
X183446498Y-105236530D01*
X183512403Y-105185957D01*
X183512404Y-105185956D01*
X182711059Y-104384612D01*
X182731591Y-104379111D01*
X182868408Y-104300119D01*
X182980119Y-104188408D01*
X183059111Y-104051591D01*
X183064612Y-104031060D01*
X183865956Y-104832404D01*
X183865957Y-104832403D01*
X183916530Y-104766498D01*
X184027949Y-104573514D01*
X184027954Y-104573502D01*
X184113236Y-104367618D01*
X184170911Y-104152367D01*
X184170914Y-104152354D01*
X184200000Y-103931424D01*
X184200000Y-103875466D01*
X191100000Y-103875466D01*
X191100000Y-104124533D01*
X191132508Y-104371461D01*
X191196973Y-104612049D01*
X191292283Y-104842148D01*
X191292288Y-104842159D01*
X191416813Y-105057841D01*
X191416819Y-105057849D01*
X191491400Y-105155045D01*
X192398958Y-104247487D01*
X192423978Y-104307890D01*
X192495112Y-104414351D01*
X192585649Y-104504888D01*
X192692110Y-104576022D01*
X192752511Y-104601041D01*
X191844953Y-105508598D01*
X191942150Y-105583180D01*
X191942158Y-105583186D01*
X192157840Y-105707711D01*
X192157851Y-105707716D01*
X192387950Y-105803026D01*
X192628536Y-105867491D01*
X192875466Y-105900000D01*
X193124534Y-105900000D01*
X193371463Y-105867491D01*
X193612049Y-105803026D01*
X193842148Y-105707716D01*
X193842159Y-105707711D01*
X194057855Y-105583178D01*
X194155045Y-105508600D01*
X194155045Y-105508597D01*
X193247488Y-104601041D01*
X193307890Y-104576022D01*
X193414351Y-104504888D01*
X193504888Y-104414351D01*
X193576022Y-104307890D01*
X193601041Y-104247489D01*
X194508597Y-105155045D01*
X194508600Y-105155045D01*
X194583178Y-105057855D01*
X194707711Y-104842159D01*
X194707716Y-104842148D01*
X194803026Y-104612049D01*
X194867492Y-104371461D01*
X194900000Y-104124533D01*
X194900000Y-103875466D01*
X194867491Y-103628536D01*
X194803026Y-103387950D01*
X194707716Y-103157851D01*
X194707711Y-103157840D01*
X194583186Y-102942158D01*
X194583180Y-102942150D01*
X194508598Y-102844953D01*
X193601041Y-103752510D01*
X193576022Y-103692110D01*
X193504888Y-103585649D01*
X193414351Y-103495112D01*
X193307890Y-103423978D01*
X193247487Y-103398957D01*
X194155045Y-102491400D01*
X194057849Y-102416819D01*
X194057841Y-102416813D01*
X193842159Y-102292288D01*
X193842148Y-102292283D01*
X193612049Y-102196973D01*
X193371463Y-102132508D01*
X193124534Y-102100000D01*
X192875466Y-102100000D01*
X192628536Y-102132508D01*
X192387950Y-102196973D01*
X192157851Y-102292283D01*
X192157847Y-102292285D01*
X191942143Y-102416823D01*
X191844953Y-102491399D01*
X191844953Y-102491400D01*
X192752511Y-103398958D01*
X192692110Y-103423978D01*
X192585649Y-103495112D01*
X192495112Y-103585649D01*
X192423978Y-103692110D01*
X192398958Y-103752511D01*
X191491400Y-102844953D01*
X191491399Y-102844953D01*
X191416823Y-102942143D01*
X191292285Y-103157847D01*
X191292283Y-103157851D01*
X191196973Y-103387950D01*
X191132508Y-103628536D01*
X191100000Y-103875466D01*
X184200000Y-103875466D01*
X184200000Y-103708575D01*
X184170914Y-103487645D01*
X184170911Y-103487632D01*
X184113236Y-103272381D01*
X184027954Y-103066497D01*
X184027949Y-103066485D01*
X183916533Y-102873507D01*
X183865956Y-102807595D01*
X183865955Y-102807595D01*
X183064612Y-103608939D01*
X183059111Y-103588409D01*
X182980119Y-103451592D01*
X182868408Y-103339881D01*
X182731591Y-103260889D01*
X182711058Y-103255387D01*
X183512403Y-102454043D01*
X183512403Y-102454040D01*
X183446504Y-102403473D01*
X183446491Y-102403464D01*
X183253520Y-102292054D01*
X183253502Y-102292045D01*
X183047618Y-102206763D01*
X182832367Y-102149088D01*
X182832354Y-102149085D01*
X182611425Y-102120000D01*
X182388575Y-102120000D01*
X182167645Y-102149085D01*
X182167632Y-102149088D01*
X181952381Y-102206763D01*
X181746497Y-102292045D01*
X181746479Y-102292054D01*
X181553511Y-102403462D01*
X181487595Y-102454042D01*
X182288941Y-103255387D01*
X182268409Y-103260889D01*
X182131592Y-103339881D01*
X182019881Y-103451592D01*
X181940889Y-103588409D01*
X181935387Y-103608940D01*
X181134042Y-102807595D01*
X181083462Y-102873511D01*
X180972054Y-103066479D01*
X180972045Y-103066497D01*
X180886763Y-103272381D01*
X180829088Y-103487632D01*
X180829085Y-103487645D01*
X180800000Y-103708575D01*
X166987345Y-103708575D01*
X166261731Y-102982962D01*
X166325316Y-102965925D01*
X166439330Y-102900099D01*
X166532422Y-102807007D01*
X166598248Y-102692993D01*
X166615285Y-102629409D01*
X167354981Y-103369105D01*
X167354981Y-103369104D01*
X167415237Y-103286169D01*
X167415241Y-103286163D01*
X167522425Y-103075802D01*
X167595388Y-102851247D01*
X167632323Y-102618052D01*
X167632323Y-102381947D01*
X167595388Y-102148752D01*
X167522425Y-101924197D01*
X167415237Y-101713828D01*
X167354981Y-101630894D01*
X167354981Y-101630893D01*
X166615285Y-102370590D01*
X166598248Y-102307007D01*
X166532422Y-102192993D01*
X166439330Y-102099901D01*
X166325316Y-102034075D01*
X166261732Y-102017037D01*
X167001428Y-101277340D01*
X167001427Y-101277338D01*
X166918497Y-101217087D01*
X166708125Y-101109897D01*
X166483570Y-101036934D01*
X166483571Y-101036934D01*
X166250375Y-101000000D01*
X166014271Y-101000000D01*
X165781075Y-101036934D01*
X165556520Y-101109897D01*
X165346153Y-101217084D01*
X165263217Y-101277340D01*
X166002914Y-102017037D01*
X165939330Y-102034075D01*
X165825316Y-102099901D01*
X165732224Y-102192993D01*
X165666398Y-102307007D01*
X165649360Y-102370591D01*
X164909663Y-101630894D01*
X164849407Y-101713830D01*
X164742220Y-101924197D01*
X164669257Y-102148752D01*
X164632323Y-102381947D01*
X145900080Y-102381947D01*
X147045109Y-101236918D01*
X150196820Y-98085208D01*
X155085209Y-93196819D01*
X155146532Y-93163334D01*
X155172890Y-93160500D01*
X155958097Y-93160500D01*
X156191368Y-93123553D01*
X156415992Y-93050568D01*
X156626434Y-92943343D01*
X156817510Y-92804517D01*
X157144517Y-92477510D01*
X157283343Y-92286434D01*
X157390568Y-92075992D01*
X157463553Y-91851369D01*
X157492610Y-91667909D01*
X157500500Y-91618097D01*
X157500500Y-91381902D01*
X157486486Y-91293423D01*
X157495440Y-91224130D01*
X157540437Y-91170678D01*
X157607188Y-91150038D01*
X157674502Y-91168763D01*
X157696640Y-91186344D01*
X164595504Y-98085208D01*
X164628989Y-98146531D01*
X164631823Y-98172888D01*
X164631823Y-98300000D01*
X164631824Y-98300019D01*
X164642323Y-98402796D01*
X164642324Y-98402799D01*
X164697508Y-98569331D01*
X164697509Y-98569334D01*
X164789611Y-98718656D01*
X164913667Y-98842712D01*
X165062989Y-98934814D01*
X165229526Y-98989999D01*
X165332314Y-99000500D01*
X166004228Y-99000499D01*
X166004242Y-99000500D01*
X166014231Y-99000500D01*
X166250415Y-99000500D01*
X180587111Y-99000500D01*
X180616551Y-99009144D01*
X180646538Y-99015668D01*
X180651553Y-99019422D01*
X180654150Y-99020185D01*
X180674792Y-99036819D01*
X180848350Y-99210378D01*
X180880443Y-99265962D01*
X180886290Y-99287781D01*
X180886290Y-99287782D01*
X180971590Y-99493717D01*
X180971595Y-99493726D01*
X181083052Y-99686774D01*
X181083057Y-99686780D01*
X181083058Y-99686782D01*
X181218751Y-99863622D01*
X181218757Y-99863629D01*
X181376370Y-100021242D01*
X181376376Y-100021247D01*
X181553226Y-100156948D01*
X181746274Y-100268405D01*
X181952219Y-100353710D01*
X182167537Y-100411404D01*
X182291737Y-100427754D01*
X182313869Y-100432762D01*
X182408632Y-100463553D01*
X182496110Y-100477408D01*
X182641903Y-100500500D01*
X182641908Y-100500500D01*
X182641909Y-100500500D01*
X182878092Y-100500500D01*
X191115203Y-100500500D01*
X191182242Y-100520185D01*
X191220741Y-100559403D01*
X191257286Y-100618651D01*
X191257289Y-100618655D01*
X191381344Y-100742710D01*
X191381348Y-100742713D01*
X191530662Y-100834812D01*
X191530664Y-100834813D01*
X191530666Y-100834814D01*
X191697203Y-100889999D01*
X191799992Y-100900500D01*
X191799997Y-100900500D01*
X194200003Y-100900500D01*
X194200008Y-100900500D01*
X194302797Y-100889999D01*
X194469334Y-100834814D01*
X194618655Y-100742711D01*
X194742711Y-100618655D01*
X194834814Y-100469334D01*
X194889999Y-100302797D01*
X194900500Y-100200008D01*
X194900500Y-97799992D01*
X194889999Y-97697203D01*
X194834814Y-97530666D01*
X194815590Y-97499500D01*
X194742713Y-97381348D01*
X194742710Y-97381344D01*
X194618655Y-97257289D01*
X194618651Y-97257286D01*
X194469337Y-97165187D01*
X194469335Y-97165186D01*
X194386065Y-97137593D01*
X194302797Y-97110001D01*
X194302795Y-97110000D01*
X194200015Y-97099500D01*
X194200008Y-97099500D01*
X191799992Y-97099500D01*
X191799984Y-97099500D01*
X191697204Y-97110000D01*
X191697203Y-97110001D01*
X191530664Y-97165186D01*
X191530662Y-97165187D01*
X191381348Y-97257286D01*
X191381344Y-97257289D01*
X191257289Y-97381344D01*
X191257286Y-97381348D01*
X191220741Y-97440597D01*
X191168793Y-97487322D01*
X191115203Y-97499500D01*
X183715734Y-97499500D01*
X183648695Y-97479815D01*
X183628053Y-97463181D01*
X183623629Y-97458757D01*
X183623622Y-97458751D01*
X183446782Y-97323058D01*
X183446780Y-97323057D01*
X183446774Y-97323052D01*
X183253726Y-97211595D01*
X183253717Y-97211590D01*
X183047782Y-97126290D01*
X183025962Y-97120443D01*
X182970378Y-97088350D01*
X182237512Y-96355485D01*
X182237511Y-96355484D01*
X182046434Y-96216657D01*
X181835996Y-96109433D01*
X181611368Y-96036446D01*
X181378097Y-95999500D01*
X181378092Y-95999500D01*
X166805212Y-95999500D01*
X166738173Y-95979815D01*
X166717531Y-95963181D01*
X156036819Y-85282469D01*
X156003334Y-85221146D01*
X156000500Y-85194788D01*
X156000500Y-82760132D01*
X156018962Y-82695034D01*
X156034814Y-82669335D01*
X156089999Y-82502798D01*
X156100500Y-82400010D01*
X156100500Y-80599990D01*
X156089999Y-80497202D01*
X156034814Y-80330665D01*
X155942712Y-80181344D01*
X155818656Y-80057288D01*
X155695037Y-79981039D01*
X155669337Y-79965187D01*
X155669332Y-79965185D01*
X155667863Y-79964698D01*
X155502798Y-79910001D01*
X155502796Y-79910000D01*
X155400017Y-79899500D01*
X155400010Y-79899500D01*
X153599990Y-79899500D01*
X153599982Y-79899500D01*
X153497203Y-79910000D01*
X153497202Y-79910001D01*
X153414669Y-79937349D01*
X153330667Y-79965185D01*
X153330662Y-79965187D01*
X153314932Y-79974889D01*
X153304962Y-79981039D01*
X153239867Y-79999500D01*
X123760133Y-79999500D01*
X123695037Y-79981039D01*
X123677108Y-79969980D01*
X123669337Y-79965187D01*
X123669332Y-79965185D01*
X123667863Y-79964698D01*
X123502798Y-79910001D01*
X123502796Y-79910000D01*
X123400017Y-79899500D01*
X123400010Y-79899500D01*
X121599990Y-79899500D01*
X121599982Y-79899500D01*
X121497203Y-79910000D01*
X121497202Y-79910001D01*
X121414669Y-79937349D01*
X121330667Y-79965185D01*
X121330662Y-79965187D01*
X121181342Y-80057289D01*
X121057289Y-80181342D01*
X120965187Y-80330662D01*
X120965186Y-80330665D01*
X120910001Y-80497202D01*
X120910001Y-80497203D01*
X120910000Y-80497203D01*
X120899500Y-80599982D01*
X120899500Y-82400017D01*
X120910000Y-82502796D01*
X120965185Y-82669332D01*
X120965187Y-82669337D01*
X121000070Y-82725890D01*
X121057288Y-82818656D01*
X121181344Y-82942712D01*
X121330665Y-83034814D01*
X121497202Y-83089999D01*
X121599990Y-83100500D01*
X121599995Y-83100500D01*
X123400005Y-83100500D01*
X123400010Y-83100500D01*
X123502798Y-83089999D01*
X123669335Y-83034814D01*
X123695037Y-83018960D01*
X123760133Y-83000500D01*
X152875500Y-83000500D01*
X152942539Y-83020185D01*
X152988294Y-83072989D01*
X152999500Y-83124500D01*
X152999500Y-85985774D01*
X153036446Y-86219045D01*
X153109433Y-86443673D01*
X153216657Y-86654111D01*
X153355484Y-86845188D01*
X156313655Y-89803359D01*
X156347140Y-89864682D01*
X156342156Y-89934374D01*
X156300284Y-89990307D01*
X156234820Y-90014724D01*
X156206577Y-90013513D01*
X156118099Y-89999500D01*
X156118092Y-89999500D01*
X155881908Y-89999500D01*
X155881903Y-89999500D01*
X155648634Y-90036446D01*
X155424005Y-90109433D01*
X155352269Y-90145985D01*
X155339265Y-90149106D01*
X155330909Y-90154477D01*
X155295974Y-90159500D01*
X155080901Y-90159500D01*
X155042583Y-90153431D01*
X154874782Y-90098909D01*
X154683642Y-90068635D01*
X154625962Y-90059500D01*
X154374038Y-90059500D01*
X154249626Y-90079205D01*
X154125214Y-90098910D01*
X153885616Y-90176760D01*
X153661151Y-90291132D01*
X153457350Y-90439201D01*
X153457345Y-90439205D01*
X153279205Y-90617345D01*
X153279201Y-90617350D01*
X153131130Y-90821153D01*
X153051028Y-90978360D01*
X153028225Y-91009745D01*
X143324792Y-100713181D01*
X143263469Y-100746666D01*
X143237111Y-100749500D01*
X86352297Y-100749500D01*
X86285258Y-100729815D01*
X86246759Y-100690597D01*
X86210213Y-100631348D01*
X86210210Y-100631344D01*
X86086155Y-100507289D01*
X86086151Y-100507286D01*
X85936837Y-100415187D01*
X85936835Y-100415186D01*
X85853565Y-100387593D01*
X85770297Y-100360001D01*
X85770295Y-100360000D01*
X85667515Y-100349500D01*
X85667508Y-100349500D01*
X83267492Y-100349500D01*
X83267484Y-100349500D01*
X83164704Y-100360000D01*
X83164703Y-100360001D01*
X82998164Y-100415186D01*
X82998162Y-100415187D01*
X82848848Y-100507286D01*
X82848844Y-100507289D01*
X82724789Y-100631344D01*
X82724786Y-100631348D01*
X82632687Y-100780662D01*
X82632686Y-100780664D01*
X82577501Y-100947203D01*
X82577500Y-100947204D01*
X82567000Y-101049984D01*
X76350341Y-101049984D01*
X76366109Y-100836227D01*
X76366359Y-100833327D01*
X76517913Y-99294575D01*
X76518232Y-99291703D01*
X76707493Y-97757213D01*
X76707887Y-97754306D01*
X76934759Y-96224858D01*
X76935228Y-96221951D01*
X77199549Y-94698632D01*
X77200101Y-94695670D01*
X77236426Y-94513053D01*
X77501723Y-93179310D01*
X77502332Y-93176433D01*
X77841099Y-91667834D01*
X77841767Y-91665021D01*
X77874576Y-91534038D01*
X120899500Y-91534038D01*
X120899500Y-91785961D01*
X120938910Y-92034785D01*
X121016760Y-92274383D01*
X121095413Y-92428747D01*
X121120259Y-92477510D01*
X121131132Y-92498848D01*
X121279201Y-92702649D01*
X121279205Y-92702654D01*
X121457345Y-92880794D01*
X121457350Y-92880798D01*
X121579484Y-92969533D01*
X121661155Y-93028870D01*
X121804184Y-93101747D01*
X121885616Y-93143239D01*
X121885618Y-93143239D01*
X121885621Y-93143241D01*
X122125215Y-93221090D01*
X122374038Y-93260500D01*
X122374039Y-93260500D01*
X122625961Y-93260500D01*
X122625962Y-93260500D01*
X122874785Y-93221090D01*
X123114379Y-93143241D01*
X123338845Y-93028870D01*
X123542656Y-92880793D01*
X123720793Y-92702656D01*
X123868870Y-92498845D01*
X123983241Y-92274379D01*
X124061090Y-92034785D01*
X124100500Y-91785962D01*
X124100500Y-91534038D01*
X124061090Y-91285215D01*
X123983241Y-91045621D01*
X123983239Y-91045618D01*
X123983239Y-91045616D01*
X123921276Y-90924008D01*
X123868870Y-90821155D01*
X123849952Y-90795117D01*
X123720798Y-90617350D01*
X123720794Y-90617345D01*
X123542654Y-90439205D01*
X123542649Y-90439201D01*
X123338848Y-90291132D01*
X123338847Y-90291131D01*
X123338845Y-90291130D01*
X123268747Y-90255413D01*
X123114383Y-90176760D01*
X122874785Y-90098910D01*
X122874779Y-90098909D01*
X122625962Y-90059500D01*
X122374038Y-90059500D01*
X122249626Y-90079205D01*
X122125214Y-90098910D01*
X121885616Y-90176760D01*
X121661151Y-90291132D01*
X121457350Y-90439201D01*
X121457345Y-90439205D01*
X121279205Y-90617345D01*
X121279201Y-90617350D01*
X121131132Y-90821151D01*
X121016760Y-91045616D01*
X120938910Y-91285214D01*
X120899500Y-91534038D01*
X77874576Y-91534038D01*
X78217462Y-90165160D01*
X78218201Y-90162359D01*
X78630565Y-88672268D01*
X78631404Y-88669375D01*
X78715950Y-88390664D01*
X79080221Y-87189822D01*
X79081088Y-87187084D01*
X79566129Y-85718844D01*
X79567048Y-85716176D01*
X80087936Y-84260389D01*
X80088933Y-84257707D01*
X80645398Y-82815126D01*
X80646488Y-82812400D01*
X81238152Y-81383996D01*
X81239351Y-81381202D01*
X81865880Y-79967775D01*
X81867107Y-79965096D01*
X82528166Y-78567403D01*
X82529464Y-78564744D01*
X83224620Y-77183705D01*
X83225987Y-77181071D01*
X83954828Y-75817505D01*
X83956202Y-75815009D01*
X84718308Y-74469706D01*
X84719799Y-74467147D01*
X84773130Y-74378169D01*
X84824477Y-74330790D01*
X84846619Y-74322357D01*
X111494275Y-67001572D01*
X111505858Y-66998981D01*
X134471301Y-63004991D01*
X134527918Y-63008309D01*
G37*
%TD.AperFunction*%
%TD*%
M02*
