%TF.GenerationSoftware,KiCad,Pcbnew,10.0.3*%
%TF.CreationDate,2026-06-26T14:54:03+05:30*%
%TF.ProjectId,bridge_rectifier_kicad,62726964-6765-45f7-9265-637469666965,rev?*%
%TF.SameCoordinates,Original*%
%TF.FileFunction,Legend,Top*%
%TF.FilePolarity,Positive*%
%FSLAX46Y46*%
G04 Gerber Fmt 4.6, Leading zero omitted, Abs format (unit mm)*
G04 Created by KiCad (PCBNEW 10.0.3) date 2026-06-26 14:54:03*
%MOMM*%
%LPD*%
G01*
G04 APERTURE LIST*
%ADD10C,0.100000*%
%ADD11C,0.150000*%
%ADD12C,0.120000*%
G04 APERTURE END LIST*
D10*
X173732455Y-127122419D02*
X173732455Y-126598609D01*
X173732455Y-126598609D02*
X173684836Y-126503371D01*
X173684836Y-126503371D02*
X173589598Y-126455752D01*
X173589598Y-126455752D02*
X173399122Y-126455752D01*
X173399122Y-126455752D02*
X173303884Y-126503371D01*
X173732455Y-127074800D02*
X173637217Y-127122419D01*
X173637217Y-127122419D02*
X173399122Y-127122419D01*
X173399122Y-127122419D02*
X173303884Y-127074800D01*
X173303884Y-127074800D02*
X173256265Y-126979561D01*
X173256265Y-126979561D02*
X173256265Y-126884323D01*
X173256265Y-126884323D02*
X173303884Y-126789085D01*
X173303884Y-126789085D02*
X173399122Y-126741466D01*
X173399122Y-126741466D02*
X173637217Y-126741466D01*
X173637217Y-126741466D02*
X173732455Y-126693847D01*
X174208646Y-127122419D02*
X174208646Y-126455752D01*
X174208646Y-126550990D02*
X174256265Y-126503371D01*
X174256265Y-126503371D02*
X174351503Y-126455752D01*
X174351503Y-126455752D02*
X174494360Y-126455752D01*
X174494360Y-126455752D02*
X174589598Y-126503371D01*
X174589598Y-126503371D02*
X174637217Y-126598609D01*
X174637217Y-126598609D02*
X174637217Y-127122419D01*
X174637217Y-126598609D02*
X174684836Y-126503371D01*
X174684836Y-126503371D02*
X174780074Y-126455752D01*
X174780074Y-126455752D02*
X174922931Y-126455752D01*
X174922931Y-126455752D02*
X175018170Y-126503371D01*
X175018170Y-126503371D02*
X175065789Y-126598609D01*
X175065789Y-126598609D02*
X175065789Y-127122419D01*
X175541979Y-127122419D02*
X175541979Y-126122419D01*
X175541979Y-126503371D02*
X175637217Y-126455752D01*
X175637217Y-126455752D02*
X175827693Y-126455752D01*
X175827693Y-126455752D02*
X175922931Y-126503371D01*
X175922931Y-126503371D02*
X175970550Y-126550990D01*
X175970550Y-126550990D02*
X176018169Y-126646228D01*
X176018169Y-126646228D02*
X176018169Y-126931942D01*
X176018169Y-126931942D02*
X175970550Y-127027180D01*
X175970550Y-127027180D02*
X175922931Y-127074800D01*
X175922931Y-127074800D02*
X175827693Y-127122419D01*
X175827693Y-127122419D02*
X175637217Y-127122419D01*
X175637217Y-127122419D02*
X175541979Y-127074800D01*
X176875312Y-127122419D02*
X176875312Y-126598609D01*
X176875312Y-126598609D02*
X176827693Y-126503371D01*
X176827693Y-126503371D02*
X176732455Y-126455752D01*
X176732455Y-126455752D02*
X176541979Y-126455752D01*
X176541979Y-126455752D02*
X176446741Y-126503371D01*
X176875312Y-127074800D02*
X176780074Y-127122419D01*
X176780074Y-127122419D02*
X176541979Y-127122419D01*
X176541979Y-127122419D02*
X176446741Y-127074800D01*
X176446741Y-127074800D02*
X176399122Y-126979561D01*
X176399122Y-126979561D02*
X176399122Y-126884323D01*
X176399122Y-126884323D02*
X176446741Y-126789085D01*
X176446741Y-126789085D02*
X176541979Y-126741466D01*
X176541979Y-126741466D02*
X176780074Y-126741466D01*
X176780074Y-126741466D02*
X176875312Y-126693847D01*
X177780074Y-127122419D02*
X177780074Y-126122419D01*
X177780074Y-127074800D02*
X177684836Y-127122419D01*
X177684836Y-127122419D02*
X177494360Y-127122419D01*
X177494360Y-127122419D02*
X177399122Y-127074800D01*
X177399122Y-127074800D02*
X177351503Y-127027180D01*
X177351503Y-127027180D02*
X177303884Y-126931942D01*
X177303884Y-126931942D02*
X177303884Y-126646228D01*
X177303884Y-126646228D02*
X177351503Y-126550990D01*
X177351503Y-126550990D02*
X177399122Y-126503371D01*
X177399122Y-126503371D02*
X177494360Y-126455752D01*
X177494360Y-126455752D02*
X177684836Y-126455752D01*
X177684836Y-126455752D02*
X177780074Y-126503371D01*
X178684836Y-127122419D02*
X178684836Y-126122419D01*
X178684836Y-127074800D02*
X178589598Y-127122419D01*
X178589598Y-127122419D02*
X178399122Y-127122419D01*
X178399122Y-127122419D02*
X178303884Y-127074800D01*
X178303884Y-127074800D02*
X178256265Y-127027180D01*
X178256265Y-127027180D02*
X178208646Y-126931942D01*
X178208646Y-126931942D02*
X178208646Y-126646228D01*
X178208646Y-126646228D02*
X178256265Y-126550990D01*
X178256265Y-126550990D02*
X178303884Y-126503371D01*
X178303884Y-126503371D02*
X178399122Y-126455752D01*
X178399122Y-126455752D02*
X178589598Y-126455752D01*
X178589598Y-126455752D02*
X178684836Y-126503371D01*
X179161027Y-127122419D02*
X179161027Y-126455752D01*
X179161027Y-126122419D02*
X179113408Y-126170038D01*
X179113408Y-126170038D02*
X179161027Y-126217657D01*
X179161027Y-126217657D02*
X179208646Y-126170038D01*
X179208646Y-126170038D02*
X179161027Y-126122419D01*
X179161027Y-126122419D02*
X179161027Y-126217657D01*
X180018169Y-127074800D02*
X179922931Y-127122419D01*
X179922931Y-127122419D02*
X179732455Y-127122419D01*
X179732455Y-127122419D02*
X179637217Y-127074800D01*
X179637217Y-127074800D02*
X179589598Y-126979561D01*
X179589598Y-126979561D02*
X179589598Y-126598609D01*
X179589598Y-126598609D02*
X179637217Y-126503371D01*
X179637217Y-126503371D02*
X179732455Y-126455752D01*
X179732455Y-126455752D02*
X179922931Y-126455752D01*
X179922931Y-126455752D02*
X180018169Y-126503371D01*
X180018169Y-126503371D02*
X180065788Y-126598609D01*
X180065788Y-126598609D02*
X180065788Y-126693847D01*
X180065788Y-126693847D02*
X179589598Y-126789085D01*
X166000000Y-123500000D02*
X191500000Y-123500000D01*
X191500000Y-131000000D01*
X166000000Y-131000000D01*
X166000000Y-123500000D01*
D11*
X126424819Y-114738094D02*
X125424819Y-114738094D01*
X125424819Y-114738094D02*
X125424819Y-114499999D01*
X125424819Y-114499999D02*
X125472438Y-114357142D01*
X125472438Y-114357142D02*
X125567676Y-114261904D01*
X125567676Y-114261904D02*
X125662914Y-114214285D01*
X125662914Y-114214285D02*
X125853390Y-114166666D01*
X125853390Y-114166666D02*
X125996247Y-114166666D01*
X125996247Y-114166666D02*
X126186723Y-114214285D01*
X126186723Y-114214285D02*
X126281961Y-114261904D01*
X126281961Y-114261904D02*
X126377200Y-114357142D01*
X126377200Y-114357142D02*
X126424819Y-114499999D01*
X126424819Y-114499999D02*
X126424819Y-114738094D01*
X125520057Y-113785713D02*
X125472438Y-113738094D01*
X125472438Y-113738094D02*
X125424819Y-113642856D01*
X125424819Y-113642856D02*
X125424819Y-113404761D01*
X125424819Y-113404761D02*
X125472438Y-113309523D01*
X125472438Y-113309523D02*
X125520057Y-113261904D01*
X125520057Y-113261904D02*
X125615295Y-113214285D01*
X125615295Y-113214285D02*
X125710533Y-113214285D01*
X125710533Y-113214285D02*
X125853390Y-113261904D01*
X125853390Y-113261904D02*
X126424819Y-113833332D01*
X126424819Y-113833332D02*
X126424819Y-113214285D01*
X126054819Y-109181904D02*
X125054819Y-109181904D01*
X126054819Y-108610476D02*
X125483390Y-109039047D01*
X125054819Y-108610476D02*
X125626247Y-109181904D01*
X158424819Y-115658094D02*
X157424819Y-115658094D01*
X157424819Y-115658094D02*
X157424819Y-115419999D01*
X157424819Y-115419999D02*
X157472438Y-115277142D01*
X157472438Y-115277142D02*
X157567676Y-115181904D01*
X157567676Y-115181904D02*
X157662914Y-115134285D01*
X157662914Y-115134285D02*
X157853390Y-115086666D01*
X157853390Y-115086666D02*
X157996247Y-115086666D01*
X157996247Y-115086666D02*
X158186723Y-115134285D01*
X158186723Y-115134285D02*
X158281961Y-115181904D01*
X158281961Y-115181904D02*
X158377200Y-115277142D01*
X158377200Y-115277142D02*
X158424819Y-115419999D01*
X158424819Y-115419999D02*
X158424819Y-115658094D01*
X157758152Y-114229523D02*
X158424819Y-114229523D01*
X157377200Y-114467618D02*
X158091485Y-114705713D01*
X158091485Y-114705713D02*
X158091485Y-114086666D01*
X158054819Y-110101904D02*
X157054819Y-110101904D01*
X158054819Y-109530476D02*
X157483390Y-109959047D01*
X157054819Y-109530476D02*
X157626247Y-110101904D01*
X197574819Y-101583333D02*
X198289104Y-101583333D01*
X198289104Y-101583333D02*
X198431961Y-101630952D01*
X198431961Y-101630952D02*
X198527200Y-101726190D01*
X198527200Y-101726190D02*
X198574819Y-101869047D01*
X198574819Y-101869047D02*
X198574819Y-101964285D01*
X197670057Y-101154761D02*
X197622438Y-101107142D01*
X197622438Y-101107142D02*
X197574819Y-101011904D01*
X197574819Y-101011904D02*
X197574819Y-100773809D01*
X197574819Y-100773809D02*
X197622438Y-100678571D01*
X197622438Y-100678571D02*
X197670057Y-100630952D01*
X197670057Y-100630952D02*
X197765295Y-100583333D01*
X197765295Y-100583333D02*
X197860533Y-100583333D01*
X197860533Y-100583333D02*
X198003390Y-100630952D01*
X198003390Y-100630952D02*
X198574819Y-101202380D01*
X198574819Y-101202380D02*
X198574819Y-100583333D01*
X89042319Y-104833333D02*
X89756604Y-104833333D01*
X89756604Y-104833333D02*
X89899461Y-104880952D01*
X89899461Y-104880952D02*
X89994700Y-104976190D01*
X89994700Y-104976190D02*
X90042319Y-105119047D01*
X90042319Y-105119047D02*
X90042319Y-105214285D01*
X90042319Y-103833333D02*
X90042319Y-104404761D01*
X90042319Y-104119047D02*
X89042319Y-104119047D01*
X89042319Y-104119047D02*
X89185176Y-104214285D01*
X89185176Y-104214285D02*
X89280414Y-104309523D01*
X89280414Y-104309523D02*
X89328033Y-104404761D01*
X172741903Y-100166666D02*
X172789523Y-100214285D01*
X172789523Y-100214285D02*
X172837142Y-100357142D01*
X172837142Y-100357142D02*
X172837142Y-100452380D01*
X172837142Y-100452380D02*
X172789523Y-100595237D01*
X172789523Y-100595237D02*
X172694284Y-100690475D01*
X172694284Y-100690475D02*
X172599046Y-100738094D01*
X172599046Y-100738094D02*
X172408570Y-100785713D01*
X172408570Y-100785713D02*
X172265713Y-100785713D01*
X172265713Y-100785713D02*
X172075237Y-100738094D01*
X172075237Y-100738094D02*
X171979999Y-100690475D01*
X171979999Y-100690475D02*
X171884761Y-100595237D01*
X171884761Y-100595237D02*
X171837142Y-100452380D01*
X171837142Y-100452380D02*
X171837142Y-100357142D01*
X171837142Y-100357142D02*
X171884761Y-100214285D01*
X171884761Y-100214285D02*
X171932380Y-100166666D01*
X172837142Y-99214285D02*
X172837142Y-99785713D01*
X172837142Y-99499999D02*
X171837142Y-99499999D01*
X171837142Y-99499999D02*
X171979999Y-99595237D01*
X171979999Y-99595237D02*
X172075237Y-99690475D01*
X172075237Y-99690475D02*
X172122856Y-99785713D01*
X125424819Y-87318094D02*
X124424819Y-87318094D01*
X124424819Y-87318094D02*
X124424819Y-87079999D01*
X124424819Y-87079999D02*
X124472438Y-86937142D01*
X124472438Y-86937142D02*
X124567676Y-86841904D01*
X124567676Y-86841904D02*
X124662914Y-86794285D01*
X124662914Y-86794285D02*
X124853390Y-86746666D01*
X124853390Y-86746666D02*
X124996247Y-86746666D01*
X124996247Y-86746666D02*
X125186723Y-86794285D01*
X125186723Y-86794285D02*
X125281961Y-86841904D01*
X125281961Y-86841904D02*
X125377200Y-86937142D01*
X125377200Y-86937142D02*
X125424819Y-87079999D01*
X125424819Y-87079999D02*
X125424819Y-87318094D01*
X125424819Y-85794285D02*
X125424819Y-86365713D01*
X125424819Y-86079999D02*
X124424819Y-86079999D01*
X124424819Y-86079999D02*
X124567676Y-86175237D01*
X124567676Y-86175237D02*
X124662914Y-86270475D01*
X124662914Y-86270475D02*
X124710533Y-86365713D01*
X125054819Y-81761904D02*
X124054819Y-81761904D01*
X125054819Y-81190476D02*
X124483390Y-81619047D01*
X124054819Y-81190476D02*
X124626247Y-81761904D01*
X157424819Y-87318094D02*
X156424819Y-87318094D01*
X156424819Y-87318094D02*
X156424819Y-87079999D01*
X156424819Y-87079999D02*
X156472438Y-86937142D01*
X156472438Y-86937142D02*
X156567676Y-86841904D01*
X156567676Y-86841904D02*
X156662914Y-86794285D01*
X156662914Y-86794285D02*
X156853390Y-86746666D01*
X156853390Y-86746666D02*
X156996247Y-86746666D01*
X156996247Y-86746666D02*
X157186723Y-86794285D01*
X157186723Y-86794285D02*
X157281961Y-86841904D01*
X157281961Y-86841904D02*
X157377200Y-86937142D01*
X157377200Y-86937142D02*
X157424819Y-87079999D01*
X157424819Y-87079999D02*
X157424819Y-87318094D01*
X156424819Y-86413332D02*
X156424819Y-85794285D01*
X156424819Y-85794285D02*
X156805771Y-86127618D01*
X156805771Y-86127618D02*
X156805771Y-85984761D01*
X156805771Y-85984761D02*
X156853390Y-85889523D01*
X156853390Y-85889523D02*
X156901009Y-85841904D01*
X156901009Y-85841904D02*
X156996247Y-85794285D01*
X156996247Y-85794285D02*
X157234342Y-85794285D01*
X157234342Y-85794285D02*
X157329580Y-85841904D01*
X157329580Y-85841904D02*
X157377200Y-85889523D01*
X157377200Y-85889523D02*
X157424819Y-85984761D01*
X157424819Y-85984761D02*
X157424819Y-86270475D01*
X157424819Y-86270475D02*
X157377200Y-86365713D01*
X157377200Y-86365713D02*
X157329580Y-86413332D01*
X157054819Y-81761904D02*
X156054819Y-81761904D01*
X157054819Y-81190476D02*
X156483390Y-81619047D01*
X156054819Y-81190476D02*
X156626247Y-81761904D01*
X185874819Y-101446666D02*
X185398628Y-101779999D01*
X185874819Y-102018094D02*
X184874819Y-102018094D01*
X184874819Y-102018094D02*
X184874819Y-101637142D01*
X184874819Y-101637142D02*
X184922438Y-101541904D01*
X184922438Y-101541904D02*
X184970057Y-101494285D01*
X184970057Y-101494285D02*
X185065295Y-101446666D01*
X185065295Y-101446666D02*
X185208152Y-101446666D01*
X185208152Y-101446666D02*
X185303390Y-101494285D01*
X185303390Y-101494285D02*
X185351009Y-101541904D01*
X185351009Y-101541904D02*
X185398628Y-101637142D01*
X185398628Y-101637142D02*
X185398628Y-102018094D01*
X185874819Y-100494285D02*
X185874819Y-101065713D01*
X185874819Y-100779999D02*
X184874819Y-100779999D01*
X184874819Y-100779999D02*
X185017676Y-100875237D01*
X185017676Y-100875237D02*
X185112914Y-100970475D01*
X185112914Y-100970475D02*
X185160533Y-101065713D01*
%TO.C,D2*%
D12*
X122030000Y-111280000D02*
X124970000Y-111280000D01*
X124970000Y-116720000D01*
X122030000Y-116720000D01*
X122030000Y-111280000D01*
X123500000Y-117740000D02*
X123500000Y-116720000D01*
X124970000Y-112300000D02*
X122030000Y-112300000D01*
X124970000Y-112180000D02*
X122030000Y-112180000D01*
X124970000Y-112060000D02*
X122030000Y-112060000D01*
X123500000Y-110260000D02*
X123500000Y-111280000D01*
%TO.C,D4*%
X155500000Y-111180000D02*
X155500000Y-112200000D01*
X156970000Y-112980000D02*
X154030000Y-112980000D01*
X156970000Y-113100000D02*
X154030000Y-113100000D01*
X156970000Y-113220000D02*
X154030000Y-113220000D01*
X155500000Y-118660000D02*
X155500000Y-117640000D01*
X154030000Y-112200000D02*
X156970000Y-112200000D01*
X156970000Y-117640000D01*
X154030000Y-117640000D01*
X154030000Y-112200000D01*
%TO.C,J2*%
X197120000Y-95880000D02*
X197120000Y-106620000D01*
X193500000Y-95880000D02*
X193500000Y-97120000D01*
X192500000Y-95880000D02*
X192500000Y-97120000D01*
X191200000Y-95880000D02*
X191200000Y-97120000D01*
X189080000Y-95880000D02*
X197120000Y-95880000D01*
X189080000Y-98700000D02*
X189080000Y-95880000D01*
X193500000Y-100880000D02*
X193500000Y-102188000D01*
X192500000Y-100880000D02*
X192500000Y-102188000D01*
X191200000Y-100880000D02*
X191200000Y-103457000D01*
X191200000Y-104543000D02*
X191200000Y-106620000D01*
X193500000Y-105812000D02*
X193500000Y-106620000D01*
X192500000Y-105812000D02*
X192500000Y-106620000D01*
X197120000Y-106620000D02*
X189080000Y-106620000D01*
X189080000Y-106620000D02*
X189080000Y-99300000D01*
X189080000Y-99000000D02*
X188470000Y-99440000D01*
X188470000Y-98560000D01*
X189080000Y-99000000D01*
G36*
X189080000Y-99000000D02*
G01*
X188470000Y-99440000D01*
X188470000Y-98560000D01*
X189080000Y-99000000D01*
G37*
%TO.C,J1*%
X88587500Y-99130000D02*
X88587500Y-109870000D01*
X84967500Y-99130000D02*
X84967500Y-100370000D01*
X83967500Y-99130000D02*
X83967500Y-100370000D01*
X82667500Y-99130000D02*
X82667500Y-100370000D01*
X80547500Y-99130000D02*
X88587500Y-99130000D01*
X80547500Y-101950000D02*
X80547500Y-99130000D01*
X84967500Y-104130000D02*
X84967500Y-105438000D01*
X83967500Y-104130000D02*
X83967500Y-105438000D01*
X82667500Y-104130000D02*
X82667500Y-106707000D01*
X82667500Y-107793000D02*
X82667500Y-109870000D01*
X84967500Y-109062000D02*
X84967500Y-109870000D01*
X83967500Y-109062000D02*
X83967500Y-109870000D01*
X88587500Y-109870000D02*
X80547500Y-109870000D01*
X80547500Y-109870000D02*
X80547500Y-102550000D01*
X80547500Y-102250000D02*
X79937500Y-102690000D01*
X79937500Y-101810000D01*
X80547500Y-102250000D01*
G36*
X80547500Y-102250000D02*
G01*
X79937500Y-102690000D01*
X79937500Y-101810000D01*
X80547500Y-102250000D01*
G37*
%TO.C,C1*%
X171252323Y-100000000D02*
G75*
G02*
X161012323Y-100000000I-5120000J0D01*
G01*
X161012323Y-100000000D02*
G75*
G02*
X171252323Y-100000000I5120000J0D01*
G01*
X166731323Y-105080000D02*
X165533323Y-105080000D01*
X166994323Y-105040000D02*
X165270323Y-105040000D01*
X167194323Y-105000000D02*
X165070323Y-105000000D01*
X167362323Y-104960000D02*
X164902323Y-104960000D01*
X167509323Y-104920000D02*
X164755323Y-104920000D01*
X167641323Y-104880000D02*
X164623323Y-104880000D01*
X167762323Y-104840000D02*
X164502323Y-104840000D01*
X167874323Y-104800000D02*
X164390323Y-104800000D01*
X167978323Y-104760000D02*
X164286323Y-104760000D01*
X168076323Y-104720000D02*
X164188323Y-104720000D01*
X168169323Y-104680000D02*
X164095323Y-104680000D01*
X168256323Y-104640000D02*
X164008323Y-104640000D01*
X168340323Y-104600000D02*
X163924323Y-104600000D01*
X168420323Y-104560000D02*
X163844323Y-104560000D01*
X168497323Y-104520000D02*
X163767323Y-104520000D01*
X168571323Y-104480000D02*
X163693323Y-104480000D01*
X168642323Y-104440000D02*
X163622323Y-104440000D01*
X168710323Y-104400000D02*
X163554323Y-104400000D01*
X168776323Y-104360000D02*
X163488323Y-104360000D01*
X168840323Y-104320000D02*
X163424323Y-104320000D01*
X168902323Y-104280000D02*
X163362323Y-104280000D01*
X168962323Y-104240000D02*
X163302323Y-104240000D01*
X169020323Y-104200000D02*
X163244323Y-104200000D01*
X169077323Y-104160000D02*
X163187323Y-104160000D01*
X169132323Y-104120000D02*
X163132323Y-104120000D01*
X169185323Y-104080000D02*
X163079323Y-104080000D01*
X169237323Y-104040000D02*
X163027323Y-104040000D01*
X169288323Y-104000000D02*
X162976323Y-104000000D01*
X169337323Y-103960000D02*
X162927323Y-103960000D01*
X169386323Y-103920000D02*
X162878323Y-103920000D01*
X169433323Y-103880000D02*
X162831323Y-103880000D01*
X169479323Y-103840000D02*
X162785323Y-103840000D01*
X169523323Y-103800000D02*
X162741323Y-103800000D01*
X169567323Y-103760000D02*
X162697323Y-103760000D01*
X164892323Y-103720000D02*
X162654323Y-103720000D01*
X169610323Y-103720000D02*
X167372323Y-103720000D01*
X164892323Y-103680000D02*
X162612323Y-103680000D01*
X169652323Y-103680000D02*
X167372323Y-103680000D01*
X164892323Y-103640000D02*
X162571323Y-103640000D01*
X169693323Y-103640000D02*
X167372323Y-103640000D01*
X164892323Y-103600000D02*
X162531323Y-103600000D01*
X169733323Y-103600000D02*
X167372323Y-103600000D01*
X164892323Y-103560000D02*
X162492323Y-103560000D01*
X169772323Y-103560000D02*
X167372323Y-103560000D01*
X164892323Y-103520000D02*
X162454323Y-103520000D01*
X169810323Y-103520000D02*
X167372323Y-103520000D01*
X164892323Y-103480000D02*
X162416323Y-103480000D01*
X169848323Y-103480000D02*
X167372323Y-103480000D01*
X164892323Y-103440000D02*
X162380323Y-103440000D01*
X169884323Y-103440000D02*
X167372323Y-103440000D01*
X164892323Y-103400000D02*
X162344323Y-103400000D01*
X169920323Y-103400000D02*
X167372323Y-103400000D01*
X164892323Y-103360000D02*
X162309323Y-103360000D01*
X169955323Y-103360000D02*
X167372323Y-103360000D01*
X164892323Y-103320000D02*
X162274323Y-103320000D01*
X169990323Y-103320000D02*
X167372323Y-103320000D01*
X164892323Y-103280000D02*
X162241323Y-103280000D01*
X170023323Y-103280000D02*
X167372323Y-103280000D01*
X164892323Y-103240000D02*
X162208323Y-103240000D01*
X170056323Y-103240000D02*
X167372323Y-103240000D01*
X164892323Y-103200000D02*
X162175323Y-103200000D01*
X170089323Y-103200000D02*
X167372323Y-103200000D01*
X164892323Y-103160000D02*
X162144323Y-103160000D01*
X170120323Y-103160000D02*
X167372323Y-103160000D01*
X164892323Y-103120000D02*
X162112323Y-103120000D01*
X170152323Y-103120000D02*
X167372323Y-103120000D01*
X164892323Y-103080000D02*
X162082323Y-103080000D01*
X170182323Y-103080000D02*
X167372323Y-103080000D01*
X164892323Y-103040000D02*
X162052323Y-103040000D01*
X170212323Y-103040000D02*
X167372323Y-103040000D01*
X164892323Y-103000000D02*
X162023323Y-103000000D01*
X170241323Y-103000000D02*
X167372323Y-103000000D01*
X164892323Y-102960000D02*
X161994323Y-102960000D01*
X170270323Y-102960000D02*
X167372323Y-102960000D01*
X164892323Y-102920000D02*
X161966323Y-102920000D01*
X170298323Y-102920000D02*
X167372323Y-102920000D01*
X164892323Y-102880000D02*
X161939323Y-102880000D01*
X170325323Y-102880000D02*
X167372323Y-102880000D01*
X164892323Y-102840000D02*
X161912323Y-102840000D01*
X170352323Y-102840000D02*
X167372323Y-102840000D01*
X164892323Y-102800000D02*
X161885323Y-102800000D01*
X170379323Y-102800000D02*
X167372323Y-102800000D01*
X164892323Y-102760000D02*
X161860323Y-102760000D01*
X170404323Y-102760000D02*
X167372323Y-102760000D01*
X164892323Y-102720000D02*
X161834323Y-102720000D01*
X170430323Y-102720000D02*
X167372323Y-102720000D01*
X164892323Y-102680000D02*
X161809323Y-102680000D01*
X170455323Y-102680000D02*
X167372323Y-102680000D01*
X164892323Y-102640000D02*
X161785323Y-102640000D01*
X170479323Y-102640000D02*
X167372323Y-102640000D01*
X164892323Y-102600000D02*
X161761323Y-102600000D01*
X170503323Y-102600000D02*
X167372323Y-102600000D01*
X164892323Y-102560000D02*
X161738323Y-102560000D01*
X170526323Y-102560000D02*
X167372323Y-102560000D01*
X164892323Y-102520000D02*
X161715323Y-102520000D01*
X170549323Y-102520000D02*
X167372323Y-102520000D01*
X164892323Y-102480000D02*
X161693323Y-102480000D01*
X170571323Y-102480000D02*
X167372323Y-102480000D01*
X164892323Y-102440000D02*
X161671323Y-102440000D01*
X170593323Y-102440000D02*
X167372323Y-102440000D01*
X164892323Y-102400000D02*
X161649323Y-102400000D01*
X170615323Y-102400000D02*
X167372323Y-102400000D01*
X164892323Y-102360000D02*
X161628323Y-102360000D01*
X170636323Y-102360000D02*
X167372323Y-102360000D01*
X164892323Y-102320000D02*
X161608323Y-102320000D01*
X170656323Y-102320000D02*
X167372323Y-102320000D01*
X164892323Y-102280000D02*
X161588323Y-102280000D01*
X170676323Y-102280000D02*
X167372323Y-102280000D01*
X164892323Y-102240000D02*
X161568323Y-102240000D01*
X170696323Y-102240000D02*
X167372323Y-102240000D01*
X164892323Y-102200000D02*
X161549323Y-102200000D01*
X170715323Y-102200000D02*
X167372323Y-102200000D01*
X164892323Y-102160000D02*
X161530323Y-102160000D01*
X170734323Y-102160000D02*
X167372323Y-102160000D01*
X164892323Y-102120000D02*
X161512323Y-102120000D01*
X170752323Y-102120000D02*
X167372323Y-102120000D01*
X164892323Y-102080000D02*
X161494323Y-102080000D01*
X170770323Y-102080000D02*
X167372323Y-102080000D01*
X164892323Y-102040000D02*
X161476323Y-102040000D01*
X170788323Y-102040000D02*
X167372323Y-102040000D01*
X164892323Y-102000000D02*
X161459323Y-102000000D01*
X170805323Y-102000000D02*
X167372323Y-102000000D01*
X164892323Y-101960000D02*
X161442323Y-101960000D01*
X170822323Y-101960000D02*
X167372323Y-101960000D01*
X164892323Y-101920000D02*
X161426323Y-101920000D01*
X170838323Y-101920000D02*
X167372323Y-101920000D01*
X164892323Y-101880000D02*
X161410323Y-101880000D01*
X170854323Y-101880000D02*
X167372323Y-101880000D01*
X164892323Y-101840000D02*
X161394323Y-101840000D01*
X170870323Y-101840000D02*
X167372323Y-101840000D01*
X164892323Y-101800000D02*
X161379323Y-101800000D01*
X170885323Y-101800000D02*
X167372323Y-101800000D01*
X164892323Y-101760000D02*
X161364323Y-101760000D01*
X170900323Y-101760000D02*
X167372323Y-101760000D01*
X164892323Y-101720000D02*
X161350323Y-101720000D01*
X170914323Y-101720000D02*
X167372323Y-101720000D01*
X164892323Y-101680000D02*
X161335323Y-101680000D01*
X170929323Y-101680000D02*
X167372323Y-101680000D01*
X164892323Y-101640000D02*
X161322323Y-101640000D01*
X170942323Y-101640000D02*
X167372323Y-101640000D01*
X164892323Y-101600000D02*
X161308323Y-101600000D01*
X170956323Y-101600000D02*
X167372323Y-101600000D01*
X164892323Y-101560000D02*
X161295323Y-101560000D01*
X170969323Y-101560000D02*
X167372323Y-101560000D01*
X164892323Y-101520000D02*
X161283323Y-101520000D01*
X170981323Y-101520000D02*
X167372323Y-101520000D01*
X164892323Y-101480000D02*
X161271323Y-101480000D01*
X170993323Y-101480000D02*
X167372323Y-101480000D01*
X164892323Y-101440000D02*
X161259323Y-101440000D01*
X171005323Y-101440000D02*
X167372323Y-101440000D01*
X164892323Y-101400000D02*
X161247323Y-101400000D01*
X171017323Y-101400000D02*
X167372323Y-101400000D01*
X164892323Y-101360000D02*
X161236323Y-101360000D01*
X171028323Y-101360000D02*
X167372323Y-101360000D01*
X164892323Y-101320000D02*
X161225323Y-101320000D01*
X171039323Y-101320000D02*
X167372323Y-101320000D01*
X164892323Y-101280000D02*
X161215323Y-101280000D01*
X171049323Y-101280000D02*
X167372323Y-101280000D01*
X171060323Y-101240000D02*
X161204323Y-101240000D01*
X171069323Y-101200000D02*
X161195323Y-101200000D01*
X171079323Y-101160000D02*
X161185323Y-101160000D01*
X171088323Y-101120000D02*
X161176323Y-101120000D01*
X171097323Y-101080000D02*
X161167323Y-101080000D01*
X171105323Y-101040000D02*
X161159323Y-101040000D01*
X171113323Y-101000000D02*
X161151323Y-101000000D01*
X171121323Y-100960000D02*
X161143323Y-100960000D01*
X171129323Y-100920000D02*
X161135323Y-100920000D01*
X171136323Y-100880000D02*
X161128323Y-100880000D01*
X171143323Y-100840000D02*
X161121323Y-100840000D01*
X171149323Y-100800000D02*
X161115323Y-100800000D01*
X171155323Y-100760000D02*
X161109323Y-100760000D01*
X171161323Y-100720000D02*
X161103323Y-100720000D01*
X171167323Y-100680000D02*
X161097323Y-100680000D01*
X171172323Y-100640000D02*
X161092323Y-100640000D01*
X171177323Y-100600000D02*
X161087323Y-100600000D01*
X171181323Y-100560000D02*
X161083323Y-100560000D01*
X171186323Y-100520000D02*
X161078323Y-100520000D01*
X171189323Y-100480000D02*
X161075323Y-100480000D01*
X171193323Y-100440000D02*
X161071323Y-100440000D01*
X171196323Y-100400000D02*
X161068323Y-100400000D01*
X171199323Y-100360000D02*
X161065323Y-100360000D01*
X171202323Y-100320000D02*
X161062323Y-100320000D01*
X171204323Y-100280000D02*
X161060323Y-100280000D01*
X171206323Y-100240000D02*
X161058323Y-100240000D01*
X171208323Y-100200000D02*
X161056323Y-100200000D01*
X171209323Y-100160000D02*
X161055323Y-100160000D01*
X171211323Y-100120000D02*
X161053323Y-100120000D01*
X171211323Y-100080000D02*
X161053323Y-100080000D01*
X171212323Y-100040000D02*
X161052323Y-100040000D01*
X171212323Y-100000000D02*
X161052323Y-100000000D01*
X169507323Y-95020354D02*
X168507323Y-95020354D01*
X169007323Y-94520354D02*
X169007323Y-95520354D01*
%TO.C,D1*%
X122500000Y-82840000D02*
X122500000Y-83860000D01*
X123970000Y-84640000D02*
X121030000Y-84640000D01*
X123970000Y-84760000D02*
X121030000Y-84760000D01*
X123970000Y-84880000D02*
X121030000Y-84880000D01*
X122500000Y-90320000D02*
X122500000Y-89300000D01*
X121030000Y-83860000D02*
X123970000Y-83860000D01*
X123970000Y-89300000D01*
X121030000Y-89300000D01*
X121030000Y-83860000D01*
%TO.C,D3*%
X154500000Y-82840000D02*
X154500000Y-83860000D01*
X155970000Y-84640000D02*
X153030000Y-84640000D01*
X155970000Y-84760000D02*
X153030000Y-84760000D01*
X155970000Y-84880000D02*
X153030000Y-84880000D01*
X154500000Y-90320000D02*
X154500000Y-89300000D01*
X153030000Y-83860000D02*
X155970000Y-83860000D01*
X155970000Y-89300000D01*
X153030000Y-89300000D01*
X153030000Y-83860000D01*
%TO.C,R1*%
X182500000Y-100660000D02*
X182500000Y-102320000D01*
X184420000Y-98740000D02*
G75*
G02*
X180580000Y-98740000I-1920000J0D01*
G01*
X180580000Y-98740000D02*
G75*
G02*
X184420000Y-98740000I1920000J0D01*
G01*
%TD*%
M02*
